<svg width="164" height="165" viewBox="0 0 164 165" fill="none" xmlns="http://www.w3.org/2000/svg">
<path d="M81.0059 0C126.57 0 163.508 36.9374 163.508 82.502C163.508 128.067 126.571 165.004 81.0059 165.004C40.8173 165.004 7.3403 136.269 0 98.2236C0.00187199 98.2289 0.00364668 98.2317 0.00390625 98.2324C9.53823 100.313 24.1508 104.587 24.166 104.592L42.3955 112.283L43.5928 118.417C43.8932 119.956 44.392 121.451 45.0088 122.893C45.6133 124.306 46.4272 125.624 47.4463 126.774C48.2976 127.735 49.2224 128.617 50.4326 129.203C56.0521 131.921 67.3146 132.861 76.2764 134.438L76.4326 135.236C77.6107 141.271 81.5659 146.396 87.1045 149.065C87.4651 149.239 87.8656 148.918 87.7734 148.528L84.9443 136.599C85.1625 136.684 85.3746 136.769 85.5791 136.858C94.2333 140.625 103.957 146.092 105.98 146.796C107.174 147.211 107.837 147.034 108.181 146.818C108.436 146.658 108.507 146.343 108.483 146.043C108.402 145.002 108.001 142.378 106.027 140.237C103.504 137.5 103.31 137.203 98.5889 134.242C98.1628 133.975 97.9958 134.264 98.3418 133.491C98.3418 133.491 117.617 136.752 118.543 136.387C119.467 136.02 116.243 132.786 115.954 132.519C108.213 125.29 95.764 125.272 86.0371 121.848C81.9916 120.421 72.0515 117.347 69.374 114.466C67.6353 112.593 64.846 103.063 64.2012 100.2C64.1975 100.187 63.3417 97.1535 63.168 95.8311C63.2077 95.8362 78.1645 97.7584 86.6689 99.0859C89.856 99.5814 93.504 100 96.5039 100C101.004 100 106.327 99.8091 111.133 99.1777C111.177 99.1711 113.419 98.8286 115.062 98.5078C119.074 97.6267 126.004 94.5008 129.504 91.501C133.004 88.5011 134.472 83.787 134.504 83C134.581 81.0833 131.299 74.8305 131.28 74.7949C130.164 72.1783 127.256 66.0459 127.235 66.002C126.179 64.0137 123.562 58.1987 122.193 56.1934C122.193 56.1934 104.352 26.7537 84.4434 17.416C80.2887 14.8786 70.1757 8.44097 65.7715 8.09961C62.3042 7.84083 59.9302 11.6793 59.916 15.1562C59.9057 17.7127 59.9108 20.4137 59.9629 21.7188C59.9662 21.8109 60.534 37.7951 59.9629 38.0869C51.6255 27.7699 39.4405 21.4919 27.0693 20.0703C41.532 7.56453 60.3856 5.78527e-05 81.0059 0Z" fill="#058BFF"/>
</svg>
